<svg xmlns="http://www.w3.org/2000/svg" viewBox="0 0 20 20"><path d="M6.1,17.1l-.4-.6H3.5V3.5H5.7l.4-.6L7,1.8H2.7a.9.9,0,0,0-.9.9V17.3a.9.9,0,0,0,.9.9H7Z"/><path d="M17.3,1.8H13l.9,1.1.4.6h2.2v13H14.3l-.4.6L13,18.2h4.3a.9.9,0,0,0,.9-.9V2.7A.9.9,0,0,0,17.3,1.8Z"/><path d="M10,19.7a1,1,0,0,1-1-1V1.3a1,1,0,0,1,2,0V18.7A1,1,0,0,1,10,19.7Z"/><path d="M10,19.7a1.2,1.2,0,0,1-.8-.4L6.8,16.4A1.1,1.1,0,0,1,6.9,15a1.2,1.2,0,0,1,1.5.1L10.8,18a1,1,0,0,1-.2,1.4A.7.7,0,0,1,10,19.7Z"/><path d="M10,19.7a.7.7,0,0,1-.6-.3A1,1,0,0,1,9.2,18l2.4-2.9a1.2,1.2,0,0,1,1.5-.1,1.1,1.1,0,0,1,.1,1.4l-2.4,2.9A1.2,1.2,0,0,1,10,19.7Z"/><path d="M7.6,5.2,6.9,5a1.1,1.1,0,0,1-.1-1.4L9.2.7A1,1,0,0,1,10.6.6,1,1,0,0,1,10.8,2L8.4,4.9A1.1,1.1,0,0,1,7.6,5.2Z"/><path d="M12.4,5.2a1.1,1.1,0,0,1-.8-.3L9.2,2A1,1,0,0,1,9.4.6a1,1,0,0,1,1.4.1l2.4,2.9A1.1,1.1,0,0,1,13.1,5Z"/></svg>