<svg xmlns="http://www.w3.org/2000/svg" viewBox="0 0 20 20"><path d="M2.1,12.6l.5.2V2.6H12.8c-.1-.1-.1-.3-.2-.5A2.7,2.7,0,0,1,13.1.6H1.6a1.1,1.1,0,0,0-1,1V13.1A2.7,2.7,0,0,1,2.1,12.6Z"/><path d="M18.1,7.4h-.2l-.5-.2V17.4H7.2c.1.1.1.3.2.5a2.7,2.7,0,0,1-.5,1.5H18.4a1.1,1.1,0,0,0,1-1V6.9A2.1,2.1,0,0,1,18.1,7.4Z"/><path d="M1.6,19.4a1.1,1.1,0,0,1-.7-.3,1,1,0,0,1,0-1.4L17.7.9a1,1,0,0,1,1.4,0,1,1,0,0,1,0,1.4L2.3,19.1A.9.9,0,0,1,1.6,19.4Z"/><path d="M18.1,6.4H18a1,1,0,0,1-.9-1.1l.3-3.8A1,1,0,0,1,18.5.6a1.2,1.2,0,0,1,.9,1.1L19,5.5A.9.9,0,0,1,18.1,6.4Z"/><path d="M14.6,2.9a1,1,0,0,1-1-.9,1,1,0,0,1,.9-1L18.3.6a1.2,1.2,0,0,1,1.1.9,1,1,0,0,1-.9,1.1l-3.8.3Z"/><path d="M1.6,19.4a1.1,1.1,0,0,1-1-.9,1,1,0,0,1,.9-1.1L5.3,17a1.2,1.2,0,0,1,1.1,1,1,1,0,0,1-.9,1l-3.8.4Z"/><path d="M1.6,19.4H1.5a1.2,1.2,0,0,1-.9-1.1L1,14.5a1,1,0,0,1,1-.9,1.2,1.2,0,0,1,1,1.1l-.4,3.8A1,1,0,0,1,1.6,19.4Z"/></svg>