<svg xmlns="http://www.w3.org/2000/svg" viewBox="0 0 20 20"><path d="M10,11H9.5L1.7,6.4a1.1,1.1,0,0,1,0-1.8L9.5.1h1l7.8,4.5a1.1,1.1,0,0,1,0,1.8l-7.8,4.5ZM4.3,5.5,10,8.8l5.7-3.3L10,2.3Z"/><path d="M10,20H9.5A1.2,1.2,0,0,1,9,19V10a1.1,1.1,0,0,1,.5-.9l7.7-4.5a1.1,1.1,0,0,1,1.1,0,1.1,1.1,0,0,1,.5.9v9a1.1,1.1,0,0,1-.5.9l-7.8,4.5Zm1-9.4v6.5l5.7-3.2V7.3Z"/><path d="M10,20H9.5L1.7,15.4a1.1,1.1,0,0,1-.5-.9v-9a1.1,1.1,0,0,1,.5-.9,1.1,1.1,0,0,1,1.1,0l7.7,4.5a1.1,1.1,0,0,1,.5.9v9a1.2,1.2,0,0,1-.5.9ZM3.3,13.9,9,17.1V10.6L3.3,7.3Z"/></svg>