<svg xmlns="http://www.w3.org/2000/svg" viewBox="0 0 20 20"><defs><style>.a{fill:none;stroke:#000;stroke-linejoin:round;stroke-width:1.6px;}</style></defs><path d="M10,10.8H9.6l-6-3.5a.7.7,0,0,1-.4-.7.8.8,0,0,1,.4-.7l6-3.4a.6.6,0,0,1,.8,0l6,3.4a.8.8,0,0,1,.4.7.7.7,0,0,1-.4.7l-6,3.5ZM5.6,6.5,10,9.1l4.4-2.6L10,4Z"/><path d="M10,17.8H9.6a.9.9,0,0,1-.4-.8V10a.7.7,0,0,1,.4-.7l6-3.5h.8a.8.8,0,0,1,.4.7v7a.8.8,0,0,1-.4.7l-6,3.5Zm.8-7.3v5L15.2,13V7.9Z"/><path d="M10,17.8H9.6l-6-3.5a.8.8,0,0,1-.4-.7v-7a.8.8,0,0,1,.4-.7h.8l6,3.5a.7.7,0,0,1,.4.7v6.9a.9.9,0,0,1-.4.8ZM4.8,13l4.4,2.5v-5L4.8,7.9Z"/><rect class="a" x="1" y="1" width="18.1" height="18.09"/></svg>