<svg xmlns="http://www.w3.org/2000/svg" viewBox="0 0 20 20">
  <g>
    <g>
      <path d="M18.4723,9.5615a8.434,8.434,0,0,0-2.1759-5.2378L14.8823,5.7379a6.4492,6.4492,0,0,1,1.59,3.8236Z"/>
      <path d="M16.4709,10.4385A6.4893,6.4893,0,1,1,9.5615,3.5291v-2a8.4876,8.4876,0,1,0,8.9094,8.9094Z"/>
    </g>
    <path d="M15.6769,3.703a8.4673,8.4673,0,0,0-5.2384-2.1739v2a6.4748,6.4748,0,0,1,3.8259,1.5863Z"/>
  </g>
  <path d="M10.8311,10.6026l.0449-.0654L13.6835,6.34,9.5025,9.1636l-.0348.022a.7016.7016,0,0,0-.16.13,1.0015,1.0015,0,0,0,1.4163,1.4163A.64.64,0,0,0,10.8311,10.6026Z"/>
</svg>
