<svg xmlns="http://www.w3.org/2000/svg" viewBox="0 0 20 20"><path d="M12.3,12.1h-.5L5,8.1a.9.9,0,0,1-.4-.8A.9.9,0,0,1,5,6.5l6.8-3.9a.7.7,0,0,1,.9,0l6.8,3.9a1,1,0,0,1,.5.8,1,1,0,0,1-.5.8L12.7,12Zm-5-4.8,5,2.9,4.9-2.9L12.3,4.4Z"/><path d="M12.3,20h-.5a.9.9,0,0,1-.4-.8V11.2a.9.9,0,0,1,.4-.8l6.8-3.9a.7.7,0,0,1,.9,0,1,1,0,0,1,.5.8v7.9a.8.8,0,0,1-.5.7l-6.8,4Zm.9-8.2v5.7l5-2.9V8.9Z"/><path d="M12.3,20h-.5L5,15.9a.7.7,0,0,1-.4-.7V7.3A.9.9,0,0,1,5,6.5a.7.7,0,0,1,.9,0l6.8,3.9a1,1,0,0,1,.5.8v7.9a1,1,0,0,1-.5.8ZM6.4,14.6l5,2.9V11.8l-5-2.9Z"/><path d="M14.8,15.6H.9a.9.9,0,0,1-.8-.8V.9A.8.8,0,0,1,.9.1H14.8a.8.8,0,0,1,.8.8V14.8A.9.9,0,0,1,14.8,15.6ZM1.7,14H14V1.7H1.7Z"/></svg>