<svg xmlns="http://www.w3.org/2000/svg" viewBox="0 0 20 20"><defs><style>.a{fill:gray;}</style></defs><circle cx="1.9" cy="1.9" r="1.5"/><circle cx="10" cy="1.9" r="1.5"/><circle cx="18.1" cy="1.9" r="1.5"/><circle cx="1.9" cy="18.1" r="1.5"/><circle cx="10" cy="18.1" r="1.5"/><circle cx="18.1" cy="18.1" r="1.5"/><circle cx="1.9" cy="10" r="1.5"/><circle cx="10" cy="10" r="1.5"/><circle cx="18.1" cy="10" r="1.5"/><path class="a" d="M12.2,8.1H12c-.1-.1-.1-.2,0-.4l3.8-3.7c.1-.1.2-.1.4,0a.3.3,0,0,1,0,.4L12.4,8Z"/><path class="a" d="M14.5,4.5a.3.3,0,0,1-.3-.3.3.3,0,0,1,.3-.3h1.4a.3.3,0,0,1,.3.3.2.2,0,0,1-.2.2l-1.5.2Z"/><path class="a" d="M15.8,5.8h0c-.1,0-.3-.1-.2-.3V4.1a.3.3,0,0,1,.3-.3c.1,0,.2.2.2.3V5.6C16.1,5.7,16,5.8,15.8,5.8Z"/><path class="a" d="M8.1,7.8c0,.1,0,.1-.1.2H7.6L3.9,4.2c-.1-.1-.1-.2,0-.4h.4L8,7.6Z"/><path class="a" d="M4.5,5.5a.3.3,0,0,1-.3.3.3.3,0,0,1-.3-.3V4.1a.3.3,0,0,1,.3-.3.2.2,0,0,1,.2.2l.2,1.5Z"/><path class="a" d="M5.8,4.2h0c0,.1-.1.3-.3.2H4.1A.3.3,0,0,1,3.8,4c0-.1.2-.2.3-.2H5.6C5.7,3.9,5.8,4,5.8,4.2Z"/><path class="a" d="M7.8,11.9H8c.1.1.1.2,0,.4L4.2,16.1H3.8a.3.3,0,0,1,0-.4L7.6,12Z"/><path class="a" d="M5.5,15.5a.3.3,0,0,1,.3.3.3.3,0,0,1-.3.3H4.1a.3.3,0,0,1-.3-.3.2.2,0,0,1,.2-.2l1.5-.2Z"/><path class="a" d="M4.2,14.2h0c.1,0,.3.1.2.3v1.4a.3.3,0,0,1-.3.3c-.1,0-.2-.2-.2-.3V14.4C3.9,14.3,4,14.2,4.2,14.2Z"/><path class="a" d="M11.9,12.2V12h.4l3.7,3.8c.1.1.1.2,0,.4a.3.3,0,0,1-.4,0L12,12.4C11.9,12.3,11.9,12.3,11.9,12.2Z"/><path class="a" d="M15.5,14.5a.3.3,0,0,1,.3-.3.3.3,0,0,1,.3.3v1.4a.3.3,0,0,1-.3.3.2.2,0,0,1-.2-.2l-.2-1.5Z"/><path class="a" d="M14.2,15.8h0c0-.1.1-.3.3-.2h1.4a.3.3,0,0,1,.3.3c0,.1-.2.2-.3.2H14.4C14.3,16.1,14.2,16,14.2,15.8Z"/><path d="M10,8c-.1,0-.3-.1-.3-.2V4.1l.3-.2a.2.2,0,0,1,.2.2V7.8A.2.2,0,0,1,10,8Z"/><path d="M10.9,5.5h-.2L9.8,4.3a.3.3,0,0,1,0-.4c.1-.1.3,0,.4.1l.9,1.1a.2.2,0,0,1,0,.3Z"/><path d="M9.1,5.5H8.9a.2.2,0,0,1,0-.3L9.8,4c.1-.1.3-.2.4-.1a.3.3,0,0,1,0,.4L9.3,5.4Z"/><path d="M8,10c0,.1-.1.3-.2.3H4.1c-.1,0-.2-.2-.2-.3l.2-.2H7.8Z"/><path d="M5.5,9.1v.2l-1.1.9a.3.3,0,0,1-.4,0c-.1-.1,0-.3.1-.4l1.1-.9h.3C5.5,8.9,5.5,9,5.5,9.1Z"/><path d="M5.5,10.9c0,.1,0,.2-.1.2H5.1L4,10.2c-.1-.1-.2-.3-.1-.4a.3.3,0,0,1,.4,0l1.1.9Z"/><path d="M10,12l.3.2v3.7l-.3.2a.2.2,0,0,1-.2-.2V12.2Z"/><path d="M9.1,14.5h.2l.9,1.1a.3.3,0,0,1,0,.4c-.1.1-.3,0-.4-.1l-.9-1.1a.2.2,0,0,1,0-.3Z"/><path d="M10.9,14.5h.2a.2.2,0,0,1,0,.3L10.2,16c-.1.1-.3.2-.4.1a.3.3,0,0,1,0-.4l.9-1.1Z"/><path d="M12,10c0-.1.1-.3.2-.3h3.7c.1,0,.2.2.2.3l-.2.2H12.2Z"/><path d="M14.5,10.9v-.2l1.1-.9a.3.3,0,0,1,.4,0c.1.1,0,.3-.1.4l-1.1.9h-.3C14.5,11.1,14.5,11,14.5,10.9Z"/><path d="M14.5,9.1c0-.1,0-.2.1-.2h.3l1.1.9c.1.1.2.3.1.4a.3.3,0,0,1-.4,0l-1.1-.9Z"/></svg>