<svg xmlns="http://www.w3.org/2000/svg" viewBox="0 0 20 20"><path d="M17.4,13.7v3.7H2.6V13.7L.6,12v6.4a1.1,1.1,0,0,0,1,1H18.4a1.1,1.1,0,0,0,1-1V12Z"/><path d="M2.6,6.3V2.6H17.4V6.3l2,1.7V1.6a1.1,1.1,0,0,0-1-1H1.6a1.1,1.1,0,0,0-1,1V8Z"/><path d="M18.7,11H1.3a1,1,0,0,1,0-2H18.7a1,1,0,0,1,0,2Z"/><path d="M15.8,13.4a1.1,1.1,0,0,1-.8-.3,1.2,1.2,0,0,1,.1-1.5L18,9.2a1,1,0,0,1,1.3,1.6l-2.9,2.4Z"/><path d="M18.7,11l-.7-.2L15.1,8.4A1.2,1.2,0,0,1,15,6.9a1.1,1.1,0,0,1,1.4-.1l2.9,2.4a1,1,0,0,1,.1,1.4A.9.9,0,0,1,18.7,11Z"/><path d="M4.2,13.4l-.6-.2L.7,10.8A1,1,0,0,1,.6,9.4,1,1,0,0,1,2,9.2l2.9,2.4A1.2,1.2,0,0,1,5,13.1,1.1,1.1,0,0,1,4.2,13.4Z"/><path d="M1.3,11a.9.9,0,0,1-.7-.4A1,1,0,0,1,.7,9.2L3.6,6.8A1.1,1.1,0,0,1,5,6.9a1.2,1.2,0,0,1-.1,1.5L2,10.8Z"/></svg>