<svg xmlns="http://www.w3.org/2000/svg" viewBox="0 0 100 100">
  <path d="M93.3652,60.6534a74.4955,74.4955,0,0,0-5.5-5.2363,37.933,37.933,0,0,0,0-10.8343,74.4537,74.4537,0,0,0,5.5-5.2363c1.4478-1.5287,2.7543-3.0377,3.9312-4.4982a2.3122,2.3122,0,0,0,.1861-2.6063L89.12,17.7579a2.3119,2.3119,0,0,0-2.35-1.1419c-1.8533.2889-3.8134.6659-5.8611,1.1554a74.5022,74.5022,0,0,0-7.2914,2.1471,38.199,38.199,0,0,0-9.3767-5.4227,74.442,74.442,0,0,0-1.7843-7.3779c-.6-2.0182-1.2535-3.9042-1.93-5.6536A2.3121,2.3121,0,0,0,58.3624,0H41.6376a2.3121,2.3121,0,0,0-2.1641,1.4643c-.6764,1.7494-1.33,3.6354-1.93,5.6536a74.442,74.442,0,0,0-1.7843,7.3779,38.199,38.199,0,0,0-9.3767,5.4227,74.5022,74.5022,0,0,0-7.2914-2.1471c-2.0477-.4895-4.0078-.8665-5.8611-1.1554a2.312,2.312,0,0,0-2.35,1.1419L2.5176,32.242a2.312,2.312,0,0,0,.186,2.6063c1.1769,1.46,2.4835,2.9695,3.9313,4.4982a74.4164,74.4164,0,0,0,5.5,5.2364,37.9226,37.9226,0,0,0,0,10.8342,74.4349,74.4349,0,0,0-5.5,5.2363c-1.4478,1.5287-2.7544,3.0378-3.9313,4.4982a2.312,2.312,0,0,0-.186,2.6063L10.88,82.242a2.3121,2.3121,0,0,0,2.35,1.142c1.8533-.289,3.8134-.6659,5.8611-1.1554a74.4769,74.4769,0,0,0,7.2915-2.1471,38.1984,38.1984,0,0,0,9.3766,5.4227,74.4337,74.4337,0,0,0,1.7843,7.3778c.6,2.0182,1.2535,3.9042,1.93,5.6536A2.3121,2.3121,0,0,0,41.6376,100H58.3624a2.3121,2.3121,0,0,0,2.1641-1.4644c.6764-1.7494,1.33-3.6354,1.93-5.6536a74.427,74.427,0,0,0,1.7843-7.3778,38.1958,38.1958,0,0,0,9.3767-5.4227,74.4746,74.4746,0,0,0,7.2914,2.1471c2.0477.49,4.0078.8664,5.8611,1.1554a2.312,2.312,0,0,0,2.35-1.142l8.3624-14.4841a2.312,2.312,0,0,0-.1861-2.6062C96.12,63.6912,94.813,62.1821,93.3652,60.6534ZM50,68.1035A18.1035,18.1035,0,1,1,68.1035,50,18.1036,18.1036,0,0,1,50,68.1035Z"/>
</svg>
